<svg viewBox="0 0 128 128" version="1.1" xmlns="http://www.w3.org/2000/svg">
  <style>
    circle,
    ellipse,
    path {
      fill: #ffffff;
    }
  </style>
  <g>
    <path
      d="M112,32 C112,40 104,40 104,48 C104,56 112,48 112,64 C112,80 112,96 112,104 C112,109.333333 109.333333,112 104,112 L24,112 C18.6666667,112 16,109.333333 16,104 C16,96 16,80 16,64 C16,48 24,56 24,48 C24,40 16,40 16,32 C16,24 24,16 40,16 C56,16 72,16 88,16 C104,16 112,24 112,32 Z M80.9705627,35.7157288 L64.0007071,52.6855844 L47.0294373,35.7157288 L35.7157288,47.0294373 L52.6869986,63.9992929 L35.7157288,80.9705627 L47.0294373,92.2842712 L64,75.3137085 L80.9705627,92.2842712 L92.2842712,80.9705627 L75.3137085,64 L92.2842712,47.0294373 L80.9705627,35.7157288 Z"
      fill-rule="nonzero"></path>
  </g>
</svg>
