<svg viewBox="0 0 128 128" version="1.1" xmlns="http://www.w3.org/2000/svg">
  <style>
    circle,
    ellipse,
    path {
      fill: #000000;
    }
  </style>
  <g>
    <path d="M80,12 C105.149097,12 116.06746,17.9294728 112.755088,29.7884184 C112.385027,31.1133279 111.679573,32.3204268 110.706863,33.293137 L108,36 C105.790861,38.209139 105.790861,41.790861 108,44 L109.656854,45.6568542 C111.157145,47.1571453 112,49.1919766 112,51.3137085 L112,104 C112,108.418278 108.418278,112 104,112 L24,112 C19.581722,112 16,108.418278 16,104 L16,51.3137085 C16,49.1919766 16.8428547,47.1571453 18.3431458,45.6568542 L20,44 C22.209139,41.790861 22.209139,38.209139 20,36 L17.2931478,33.2931478 C16.3204382,32.3204429 15.6149859,31.1133483 15.2449194,29.7884448 C11.9325238,17.9294816 22.850884,12 48,12 L80,12 L80,12 Z M80.9705627,35.7157288 L63.9997288,52.6857288 L47.0294373,35.7157288 L35.7157288,47.0294373 L52.6857288,63.9997288 L35.7157288,80.9705627 L47.0294373,92.2842712 L63.9997288,75.3127288 L80.9705627,92.2842712 L92.2842712,80.9705627 L75.3127288,63.9997288 L92.2842712,47.0294373 L80.9705627,35.7157288 Z" fill-rule="nonzero"></path>
  </g>
</svg>
